<svg xmlns="http://www.w3.org/2000/svg" viewBox="0 0 32 32" width="32" height="32">
  <defs>
    <linearGradient id="bookGradient" x1="0%" y1="0%" x2="100%" y2="100%">
      <stop offset="0%" style="stop-color:#4f46e5;stop-opacity:1" />
      <stop offset="100%" style="stop-color:#7c3aed;stop-opacity:1" />
    </linearGradient>
    <linearGradient id="pageGradient" x1="0%" y1="0%" x2="100%" y2="100%">
      <stop offset="0%" style="stop-color:#f8fafc;stop-opacity:1" />
      <stop offset="100%" style="stop-color:#e2e8f0;stop-opacity:1" />
    </linearGradient>
  </defs>
  
  <!-- 背景圆形 -->
  <circle cx="16" cy="16" r="15" fill="url(#bookGradient)" stroke="#1e293b" stroke-width="0.5"/>
  
  <!-- 书本主体 -->
  <rect x="6" y="8" width="16" height="18" rx="1" fill="url(#pageGradient)" stroke="#64748b" stroke-width="0.5"/>
  
  <!-- 书本装订线 -->
  <line x1="6" y1="8" x2="6" y2="26" stroke="#4f46e5" stroke-width="1.5" stroke-linecap="round"/>
  
  <!-- 页面线条 -->
  <line x1="9" y1="12" x2="19" y2="12" stroke="#64748b" stroke-width="0.8" stroke-linecap="round"/>
  <line x1="9" y1="15" x2="17" y2="15" stroke="#64748b" stroke-width="0.8" stroke-linecap="round"/>
  <line x1="9" y1="18" x2="19" y2="18" stroke="#64748b" stroke-width="0.8" stroke-linecap="round"/>
  <line x1="9" y1="21" x2="15" y2="21" stroke="#64748b" stroke-width="0.8" stroke-linecap="round"/>
  
  <!-- 笔的图标 -->
  <g transform="translate(20, 6) rotate(45)">
    <rect x="0" y="0" width="1.5" height="8" fill="#fbbf24" stroke="#f59e0b" stroke-width="0.3"/>
    <polygon points="0,0 1.5,0 0.75,-2" fill="#ef4444"/>
    <circle cx="0.75" cy="8.5" r="0.8" fill="#64748b"/>
  </g>
  
  <!-- 装饰性光点 -->
  <circle cx="24" cy="24" r="1" fill="#fbbf24" opacity="0.6"/>
  <circle cx="8" cy="6" r="0.5" fill="#f8fafc" opacity="0.8"/>
</svg>